<?xml version="1.0" encoding="UTF-8" standalone="no"?>
<!-- Created with Inkscape (http://www.inkscape.org/) -->

<svg
   xmlns:dc="http://purl.org/dc/elements/1.1/"
   xmlns:cc="http://creativecommons.org/ns#"
   xmlns:rdf="http://www.w3.org/1999/02/22-rdf-syntax-ns#"
   xmlns:svg="http://www.w3.org/2000/svg"
   xmlns="http://www.w3.org/2000/svg"
   xmlns:sodipodi="http://sodipodi.sourceforge.net/DTD/sodipodi-0.dtd"
   xmlns:inkscape="http://www.inkscape.org/namespaces/inkscape"
   width="154.10405mm"
   height="161.18285mm"
   viewBox="0 0 154.10405 161.18285"
   version="1.1"
   id="svg4675"
   sodipodi:docname="snoopy_casinha_t.svg"
   inkscape:version="0.92.1 r15371">
  <defs
     id="defs4669" />
  <sodipodi:namedview
     id="base"
     pagecolor="#ffffff"
     bordercolor="#666666"
     borderopacity="1.0"
     inkscape:pageopacity="0.0"
     inkscape:pageshadow="2"
     inkscape:zoom="0.35"
     inkscape:cx="-201.63688"
     inkscape:cy="276.02608"
     inkscape:document-units="mm"
     inkscape:current-layer="layer1"
     showgrid="false"
     inkscape:window-width="1920"
     inkscape:window-height="1138"
     inkscape:window-x="-8"
     inkscape:window-y="-8"
     inkscape:window-maximized="1"
     fit-margin-top="5"
     fit-margin-left="5"
     fit-margin-right="5"
     fit-margin-bottom="5" />
  <metadata
     id="metadata4672">
    <rdf:RDF>
      <cc:Work
         rdf:about="">
        <dc:format>image/svg+xml</dc:format>
        <dc:type
           rdf:resource="http://purl.org/dc/dcmitype/StillImage" />
        <dc:title></dc:title>
      </cc:Work>
    </rdf:RDF>
  </metadata>
  <g
     inkscape:label="Layer 1"
     inkscape:groupmode="layer"
     id="layer1"
     transform="translate(-31.049163,-60.682388)">
    <path
       inkscape:connector-curvature="0"
       id="path4610"
       d="m 36.09451,216.50352 c -0.18636,-0.48591 0.17545,-3.31075 1.57603,-12.30485 1.29276,-8.30169 1.772651,-12.40159 1.772651,-15.14447 0,-2.54336 1.523349,-16.29402 2.646129,-23.88554 0.29088,-1.96672 0.53163,-4.03047 0.53499,-4.58612 0.003,-0.55564 0.24331,-2.12151 0.533201,-3.47971 0.2899,-1.35819 0.594769,-3.60646 0.677509,-4.99616 0.0827,-1.38969 0.321731,-3.16286 0.531091,-3.94036 0.209359,-0.77752 0.46384,-2.41862 0.565499,-3.6469 0.101671,-1.22829 0.400821,-3.10637 0.664781,-4.17352 0.26396,-1.06716 0.581809,-2.53366 0.706319,-3.25891 0.13063,-0.76085 0.50861,-1.46967 0.89358,-1.6757 0.36695,-0.19638 2.50324,-0.35706 4.74732,-0.35706 2.24407,0 4.08013,-0.0828 4.08013,-0.18395 0,-0.10118 -0.38809,-0.77586 -0.86242,-1.49931 -1.83177,-2.79378 -2.51233,-6.38813 -1.78536,-9.42924 0.27829,-1.16417 0.51367,-2.67229 0.52305,-3.35139 0.009,-0.6791 0.40476,-2.44854 0.8786,-3.93209 1.06454,-3.33293 1.38677,-8.5793 0.82821,-13.48401 -0.33856,-2.97291 -0.3037,-4.080656 0.23872,-7.584715 1.52627,-9.859803 4.82772,-15.529066 10.65118,-18.29025 1.1284,-0.535026 2.116809,-1.013689 2.196459,-1.063695 0.0797,-0.05001 -0.118779,-0.382205 -0.440967,-0.738221 -0.349541,-0.386242 -0.585801,-1.243018 -0.585801,-2.124386 0,-1.60215 0.71502,-4.288194 1.1415,-4.288194 0.145298,0 0.675759,-0.461939 1.178808,-1.026532 1.200492,-1.347348 4.652862,-2.652882 6.147322,-2.324645 2.837539,0.623227 4.933799,4.278204 4.236989,7.387483 -0.183419,0.818478 -0.428199,1.734951 -0.543959,2.036607 -0.15779,0.411185 0.2145,0.692558 1.48735,1.124154 2.923319,0.991226 6.734529,4.103613 8.353289,6.821616 0.46746,0.784904 1.33852,4.437049 1.83104,7.677153 0.26545,1.746249 0.81824,4.603749 1.22844,6.350002 0.41019,1.74625 0.87596,4.048123 1.03505,5.115273 0.27507,1.84514 0.8276,4.14153 2.03718,8.46667 0.29844,1.06715 0.59437,2.13871 0.65762,2.38125 0.0633,0.24254 0.42812,0.44097 0.81081,0.44097 0.3827,0 0.79392,0.15875 0.91384,0.35278 0.53873,0.87169 1.48583,0.21492 2.74813,-1.90571 1.52131,-2.55578 4.95138,-6.22846 6.67472,-7.14683 2.40395,-1.28107 5.08364,-2.23314 6.28983,-2.23471 1.60102,-0.002 5.04019,0.88773 6.90978,1.78778 2.01056,0.96791 5.62299,4.69435 6.81496,7.03003 0.5446,1.06715 1.3509,3.4484 1.79177,5.29166 1.19226,4.98481 1.234,5.06722 2.8166,5.56114 1.61042,0.50261 4.80401,0.58251 5.08539,0.12724 0.10499,-0.16987 -0.37237,-1.87644 -1.06078,-3.79236 -1.17805,-3.27861 -1.25549,-3.76366 -1.31659,-8.24602 -0.0638,-4.68143 -0.0469,-4.79552 0.99341,-6.70278 1.74227,-3.19416 3.42678,-5.300706 4.39828,-5.500215 0.49136,-0.100907 1.79025,-0.416502 2.88642,-0.701321 1.86774,-0.485301 2.11595,-0.471865 3.9484,0.213741 1.57945,0.590953 2.2103,1.084236 3.28151,2.565945 1.40737,1.9467 2.7732,5.51152 3.33849,8.71352 0.18841,1.06715 0.49699,2.73403 0.68574,3.70417 0.18875,0.97014 0.49234,3.23503 0.67465,5.03309 0.1823,1.79805 0.41824,3.40961 0.52431,3.58123 0.20395,0.33 0.90455,6.51725 1.04184,9.20096 0.14581,2.85013 0.20353,3.1175 0.80227,3.71623 0.50372,0.50373 1.06724,0.55781 3.79236,0.36399 3.94695,-0.28072 5.42405,0.28102 6.08806,2.31529 0.86204,2.64096 1.52239,6.71888 1.52239,9.40131 0,1.53997 0.33182,4.25346 0.74598,6.10029 1.05985,4.72606 1.37965,6.51587 1.66598,9.32372 0.1385,1.3582 0.44622,2.8162 0.68382,3.24001 0.2376,0.4238 0.432,1.30813 0.432,1.96516 0,1.1049 0.56815,4.06705 1.87734,9.78788 1.05849,4.62529 1.6372,9.11611 1.81845,14.11111 0.15135,4.17092 0.38373,5.86427 1.25875,9.17222 0.59023,2.23133 1.20821,5.60695 1.37329,7.50139 0.19464,2.23364 0.51349,3.77001 0.90705,4.37067 0.43341,0.66148 0.55678,1.371 0.43155,2.48202 -0.0965,0.85568 -0.2641,1.64452 -0.37257,1.753 -0.25621,0.2562 -12.10717,0.34944 -83.92832,0.66028 -50.455109,0.21838 -59.55318,0.18346 -59.71144,-0.22916 z m 107.94729,-2.63751 c 34.78527,-0.27391 33.31378,-0.23863 33.66499,-0.80695 0.16594,-0.26852 0.17237,-0.93921 0.0143,-1.49039 -0.15808,-0.55121 -0.39101,-2.47464 -0.51762,-4.2743 -0.2201,-3.12861 -1.08158,-7.9626 -2.092,-11.73877 -0.37619,-1.40589 -0.60564,-1.73988 -1.13054,-1.6456 -0.36221,0.0651 -2.72232,0.17399 -5.24468,0.24204 -2.52236,0.0681 -7.36423,0.24844 -10.75972,0.40081 -3.3955,0.15239 -7.99925,0.24818 -10.23057,0.21286 -11.78151,-0.18641 -26.36936,-0.0309 -29.63332,0.31591 -5.83086,0.61957 -8.06796,0.59068 -10.397,-0.1342 -2.40251,-0.74773 -6.93031,-0.99252 -19.41272,-1.04952 -4.860863,-0.0222 -9.212704,0.13597 -10.854594,0.39451 -2.128909,0.33523 -3.024889,0.33777 -4.013779,0.0114 -1.254049,-0.41387 -12.15935,-0.21774 -12.88667,0.23177 -0.17041,0.10531 -4.60275,0.21036 -9.84964,0.23342 -8.2464,0.0362 -9.57815,0.11633 -9.82265,0.59066 -0.15556,0.3018 -0.39009,2.29497 -0.52115,4.42927 -0.13107,2.13431 -0.39403,4.37227 -0.58437,4.97325 -0.57752,1.82355 -0.99628,9.09315 -0.54305,9.42716 0.36697,0.27044 48.109693,0.12316 104.814783,-0.32334 z M 50.73208,192.71624 c 4.67702,-0.0495 7.27613,-0.2401 9.17222,-0.67244 3.665951,-0.83589 10.889999,-1.14274 12.021249,-0.51061 0.678812,0.37929 3.946742,0.48542 15.848191,0.51463 13.07239,0.0321 15.41365,0.12043 18.27628,0.68961 3.09566,0.61549 3.75067,0.62401 11.46528,0.14892 10.65378,-0.65607 25.96764,-0.66962 29.54757,-0.0261 2.11819,0.38074 3.07942,0.39428 4.66252,0.0656 4.04858,-0.84049 10.99752,-1.2503 17.99874,-1.06148 4.66744,0.12587 5.15906,-0.1492 4.55266,-2.54735 -0.21175,-0.8374 -0.4633,-2.87757 -0.55901,-4.53371 -0.16006,-2.76961 -0.78519,-5.98814 -1.6763,-8.6305 -0.1963,-0.58209 -0.49506,-2.01084 -0.66392,-3.175 -0.64993,-4.48107 -1.05044,-6.29229 -1.56505,-7.07769 -0.45683,-0.69722 -0.68883,-0.76992 -1.61204,-0.50514 -1.19057,0.34145 -10.08862,0.15283 -12.86978,-0.27281 -1.71903,-0.26308 -3.39187,-0.18573 -13.22917,0.61179 -2.61938,0.21234 -6.19125,0.50034 -7.9375,0.63997 -1.74625,0.13964 -5.08,0.16169 -7.40833,0.049 -2.32834,-0.11266 -6.77334,-0.10127 -9.87778,0.0253 -3.10445,0.1266 -5.96195,0.11961 -6.35,-0.0156 -0.38806,-0.13515 -4.75368,-0.4456 -9.70139,-0.68989 -10.38851,-0.51292 -22.69519,-0.37346 -23.333069,0.26442 -0.257532,0.25753 -0.463999,2.06133 -0.54383,4.75117 -0.0708,2.38482 -0.28784,5.6854 -0.48234,7.33465 -0.194501,1.64923 -0.468551,4.12543 -0.609,5.50268 -0.297971,2.9218 -0.7846,3.66954 -2.388171,3.66954 -3.26516,0 -5.344319,-4.84744 -5.522939,-12.87639 -0.009,-0.38807 0.145989,-2.84868 0.34362,-5.46806 0.19763,-2.61937 0.300109,-4.82505 0.22774,-4.90149 -0.0724,-0.0764 -1.047991,0.15912 -2.168052,0.5235 -2.41037,0.78415 -4.004509,0.77717 -13.678129,-0.0599 -2.66915,-0.23095 -7.45767,0.28915 -8.041999,0.87348 -0.198331,0.19833 -0.498341,1.75614 -0.6667,3.4618 -0.49773,5.04274 -1.4878,13.42787 -2.064341,17.48344 -0.1867,1.31328 -0.33946,3.43439 -0.33946,4.71356 v 2.32576 l 1.32292,-0.27784 c 0.72761,-0.15283 4.25979,-0.30897 7.84931,-0.347 z m 30.658491,-28.76911 c 3.193349,-0.42945 11.873389,-0.31172 28.784559,0.39043 11.34495,0.47104 24.55991,0.24076 32.98472,-0.57477 4.57889,-0.44325 8.02248,-0.51667 16.13959,-0.3441 l 10.31875,0.21937 v -1.21833 c 0,-0.67007 -0.15875,-1.31643 -0.35278,-1.43634 -0.19403,-0.11992 -0.35278,-0.84867 -0.35278,-1.61946 0,-0.77077 -0.2999,-2.30922 -0.66645,-3.41876 -0.76358,-2.31139 -1.14095,-5.03325 -1.25789,-9.0729 -0.0895,-3.09255 -0.98973,-8.55467 -1.59687,-9.6891 -0.43647,-0.81557 -0.74277,-0.85958 -5.12185,-0.73591 -2.44896,0.0692 -3.33634,0.23274 -3.88055,0.71534 -0.38806,0.34412 -1.05231,0.80426 -1.47611,1.02253 -1.07518,0.55375 -5.10843,0.48438 -8.04876,-0.13843 -1.35812,-0.28767 -3.78694,-0.52304 -5.39738,-0.52304 -1.79987,0 -3.29511,-0.18815 -3.88069,-0.48831 -0.56877,-0.29156 -2.82467,-0.59108 -5.59865,-0.74334 l -4.64603,-0.25501 -0.9083,1.43883 c -1.2701,2.01198 -2.34733,2.45095 -6.70614,2.73276 l -3.7666,0.24351 -1.76041,-1.90519 -1.76041,-1.90519 -5.18915,-0.0673 c -2.85403,-0.037 -5.91861,-0.1583 -6.81017,-0.26948 -1.43099,-0.17845 -1.77786,-0.0775 -2.95892,0.86108 -1.63313,1.29785 -2.53707,1.34869 -3.07282,0.17283 -0.22313,-0.48972 -0.78913,-0.98664 -1.25779,-1.10426 -1.20192,-0.30167 -10.959829,0.22329 -12.054429,0.64849 -0.49898,0.19384 -2.09786,0.53963 -3.553071,0.76843 -2.496499,0.39253 -2.642449,0.46537 -2.585878,1.29062 0.033,0.48104 0.132148,3.17649 0.220379,5.9899 0.0882,2.8134 0.31959,5.51215 0.51412,5.99722 0.194529,0.48507 0.47044,3.66007 0.61314,7.05556 0.1427,3.39548 0.338849,6.3065 0.43588,6.46892 0.097,0.16243 0.515699,0.20463 0.93037,0.0938 0.41466,-0.11085 2.08838,-0.38101 3.71937,-0.60035 z m -32.708861,-0.8295 c 1.22472,-0.28138 3.09988,-0.53024 4.16703,-0.55303 2.15726,-0.046 6.64293,0.27373 7.30803,0.52097 0.23587,0.0877 2.17921,-0.0266 4.31853,-0.25397 l 3.88968,-0.41339 0.619791,-1.77575 c 0.44798,-1.28348 0.639448,-3.04711 0.690669,-6.36185 0.0773,-5.00417 0.437131,-8.3349 1.375881,-12.73663 0.335341,-1.57236 0.509429,-3.12018 0.38686,-3.43958 -0.241921,-0.63044 0.183669,-0.60377 -11.886661,-0.74488 -3.39548,-0.0397 -7.21712,-0.19446 -8.49253,-0.34392 -2.75739,-0.32313 -3.4917,0.1378 -3.51904,2.20896 -0.0239,1.81033 -0.60544,7.54959 -1.04302,10.29355 -0.20112,1.26118 -0.514599,3.48368 -0.69662,4.93889 -0.18202,1.4552 -0.491709,3.6777 -0.688189,4.93889 -0.440111,2.82489 -0.211481,4.23333 0.687209,4.23333 0.3606,0 1.65767,-0.23023 2.88238,-0.51159 z m 68.80087,-26.30194 c 0.46658,-2.73316 1.48756,-2.81239 1.88734,-0.14646 0.21782,1.45254 0.32127,1.58875 1.13248,1.49108 0.83918,-0.10103 0.89483,-0.23415 0.92719,-2.21811 0.0271,-1.66369 0.15781,-2.13465 0.61707,-2.22404 0.42444,-0.0826 0.74344,0.37072 1.17488,1.66966 0.32573,0.98068 0.72742,1.78307 0.89264,1.78307 0.48754,0 1.74852,-1.97327 1.97062,-3.08374 0.14437,-0.72187 -0.14436,-1.84453 -0.97303,-3.78345 -1.44773,-3.38738 -2.76656,-4.45784 -5.44631,-4.4206 -0.95107,0.0132 -2.36422,0.0304 -3.14033,0.0381 -1.96806,0.0197 -7.81161,-0.33398 -9.61319,-0.58179 -1.54802,-0.21294 -2.05701,-1.00085 -0.88195,-1.36524 0.33955,-0.1053 4.24141,-0.16841 8.6708,-0.14025 l 8.05344,0.0512 1.55646,1.18845 c 0.86713,0.6621 1.66161,1.60741 1.79389,2.13446 0.13059,0.5203 0.54672,1.47021 0.92474,2.11089 0.37801,0.64069 0.78859,1.99479 0.91239,3.0091 l 0.22509,1.84421 2.46944,0.26571 c 1.3582,0.14614 3.42195,0.33345 4.58611,0.41623 1.16417,0.0828 4.57729,0.39791 7.58473,0.70028 6.05108,0.60837 11.49731,0.72425 11.78988,0.25086 0.10442,-0.16896 0.03,-1.79615 -0.16546,-3.61597 -0.19543,-1.81983 -0.50192,-4.77992 -0.6811,-6.57798 -0.17918,-1.79805 -0.44366,-3.45995 -0.58775,-3.69309 -0.14409,-0.23314 -0.37799,-2.09575 -0.51978,-4.13913 -0.14179,-2.04339 -0.44908,-4.24575 -0.68287,-4.89415 -0.35915,-0.99608 -0.55474,-1.14652 -1.26122,-0.97014 -0.45988,0.11483 -1.23009,0.30609 -1.71157,0.42504 -1.03438,0.25553 -2.65236,-0.0881 -2.65236,-0.56336 0,-0.51264 1.43259,-1.18028 2.99861,-1.39748 1.31582,-0.1825 1.41761,-0.27909 1.50724,-1.43043 0.0603,-0.77394 -0.17669,-1.67656 -0.63493,-2.41867 -0.71298,-1.15467 -0.77207,-1.17711 -2.38918,-0.90744 -4.08657,0.6815 -4.86599,-0.0115 -1.24549,-1.10743 1.32527,-0.40114 2.40684,-0.87739 2.40348,-1.05833 -0.004,-0.18093 -0.34876,-0.97423 -0.76756,-1.76289 -1.5531,-2.924682 -4.67591,-3.262049 -7.07469,-0.76429 -1.88879,1.96673 -2.36956,3.74492 -2.35887,8.7246 0.009,4.16218 0.0741,4.56683 1.16165,7.20847 0.63371,1.53931 1.45977,3.23069 1.83569,3.75862 0.37592,0.52794 0.6835,1.12164 0.6835,1.31933 0,0.1977 0.41366,0.85107 0.91926,1.45193 0.76205,0.90564 0.84303,1.18434 0.47352,1.62957 -0.63924,0.77023 -8.04225,0.37739 -10.80582,-0.57341 -1.09247,-0.37587 -2.32658,-0.6834 -2.74247,-0.6834 -1.04033,0 -1.60283,-0.65602 -1.60283,-1.86932 0,-0.56246 -0.21919,-1.5229 -0.4871,-2.13431 -0.26791,-0.6114 -0.83019,-2.0987 -1.24952,-3.30511 -1.39043,-4.00027 -2.11194,-5.26799 -4.14762,-7.2875 -2.77824,-2.75618 -5.20489,-3.89467 -8.57964,-4.02523 -2.49809,-0.0966 -2.78373,-0.0264 -5.11528,1.25769 -2.85853,1.57436 -5.23837,4.24741 -6.93616,7.79072 -0.59162,1.23474 -1.58427,2.82224 -2.20589,3.52778 -1.39168,1.57957 -2.04481,4.88099 -2.18764,11.05803 -0.1355,5.86008 -0.45197,5.60301 7.08953,5.75882 3.28161,0.0678 6.96719,0.23042 8.19017,0.36139 2.11287,0.22627 2.2236,0.28488 2.2236,1.17687 0,1.10433 0.94929,2.60199 1.52718,2.40936 0.22167,-0.0739 0.52092,-0.82487 0.66499,-1.66883 z M 77.16727,135.6233 c 5.203212,-1.29657 7.19567,-1.60243 10.78286,-1.65529 2.13431,-0.0314 4.45263,0.0583 5.15182,0.19952 1.22687,0.24772 1.28052,0.21533 1.53633,-0.92762 0.14579,-0.65136 0.39571,-2.4543 0.55539,-4.00652 0.15967,-1.55223 0.46608,-4.36851 0.68091,-6.25842 0.37508,-3.29985 0.35294,-3.5588 -0.55809,-6.52639 -1.44385,-4.7032 -3.30063,-11.99138 -3.70824,-14.55547 -0.20049,-1.26119 -0.58964,-2.793302 -0.86479,-3.404709 -0.27515,-0.611407 -0.50027,-1.808366 -0.50027,-2.659909 0,-0.851543 -0.22408,-2.415053 -0.49794,-3.474464 -0.27387,-1.059411 -0.60148,-2.719951 -0.72802,-3.69009 -0.12654,-0.970139 -0.48955,-2.398889 -0.80667,-3.175 -0.65761,-1.609365 -5.331679,-6.352006 -6.53258,-6.628399 -0.430869,-0.09917 -1.65653,-0.549823 -2.723679,-1.001455 -2.843451,-1.203378 -5.761601,-1.086318 -9.872581,0.396033 -2.75559,0.993621 -3.523498,1.458831 -5.307531,3.215386 -2.115739,2.083136 -4.928219,6.898537 -4.928219,8.437846 0,0.401998 -0.23436,1.184092 -0.52079,1.737986 -0.60809,1.175919 -0.79318,6.939835 -0.53863,16.773155 0.15145,5.85043 0.1046,6.51653 -0.59546,8.46667 -2.44276,6.80476 -2.35432,10.48508 0.34997,14.56349 1.55993,2.35257 3.21283,3.25247 6.65538,3.62346 1.61689,0.17425 3.574802,0.46115 4.35092,0.63756 2.185252,0.49671 6.449401,0.45348 8.61991,-0.0874 z M 63.92034,117.25955 c -0.482,-1.25605 0.0168,-1.78002 1.983599,-2.08391 2.932272,-0.45305 5.035101,0.66924 3.874411,2.06779 -0.610749,0.73591 -5.57656,0.74957 -5.85801,0.0161 z m 77.12285,5.14935 c 0,-0.16396 -0.3175,-0.58544 -0.70556,-0.93663 -0.77645,-0.70268 -0.90254,-0.49806 -0.34037,0.55236 0.36813,0.68785 1.04593,0.93687 1.04593,0.38427 z M 71.077671,73.80129 c -0.298281,-1.838117 0.48016,-3.11686 2.326708,-3.822064 1.174063,-0.448374 1.743882,-0.495885 2.499932,-0.208436 1.90078,0.722676 2.148671,0.319862 0.739129,-1.20106 -0.821071,-0.885948 -1.04472,-0.949106 -2.557639,-0.722251 -0.911842,0.136726 -1.93592,0.397374 -2.275732,0.579219 -0.74839,0.400493 -2.380768,3.520266 -2.380768,4.550092 0,1.065126 0.63895,2.105202 1.293288,2.105202 0.450162,0 0.521282,-0.256531 0.355082,-1.280702 z"
       style="fill:#000000;stroke-width:0.35277778"
       inkscape:export-xdpi="8.7364407"
       inkscape:export-ydpi="8.7364407" />
    <path
       style="opacity:1;fill:#ffffff;fill-opacity:1;stroke:none;stroke-width:0.27930722;stroke-miterlimit:4;stroke-dasharray:none;stroke-opacity:1"
       d="m 70.6,135.93824 c -0.294005,-0.0255 -1.466639,-0.19447 -2.605881,-0.37546 -1.139217,-0.18098 -2.792969,-0.42384 -3.674957,-0.53967 -2.017687,-0.26499 -2.974738,-0.50968 -3.981848,-1.01807 -1.466718,-0.7404 -2.727113,-2.21501 -3.764227,-4.404 -0.746496,-1.57556 -1.029282,-2.87051 -1.032986,-4.72998 -0.0042,-2.0668 0.324141,-3.72411 1.384247,-6.98855 0.749697,-2.30858 0.818144,-2.62152 0.896011,-4.09666 0.04638,-0.87842 0.03527,-3.73486 -0.02461,-6.34765 -0.186293,-8.118023 0.02302,-14.21637 0.53422,-15.570192 0.111998,-0.296601 0.293555,-0.900089 0.403437,-1.341084 0.451061,-1.810352 0.629999,-2.323754 1.189858,-3.414078 1.976913,-3.850024 4.615075,-6.818798 7.068688,-7.954554 2.384637,-1.103829 5.187844,-1.886028 7.216273,-2.013597 1.818666,-0.114379 2.910231,0.09397 5.479018,1.045798 1.175993,0.435745 2.202021,0.812675 2.280073,0.837624 0.720249,0.230219 4.364384,3.794199 5.484444,5.363815 0.78981,1.106822 1.06005,1.908463 1.59515,4.731827 0.24378,1.286234 0.56813,2.921471 0.72083,3.633857 0.15266,0.712388 0.3366,2.017879 0.40875,2.901095 0.0932,1.140865 0.24778,1.965352 0.5338,2.847428 0.22143,0.682871 0.64193,2.414231 0.93445,3.847461 0.84201,4.12566 1.92442,8.34998 3.56108,13.89802 0.47059,1.59524 0.75475,2.82778 0.80106,3.4745 0.10845,1.51537 -1.13867,12.6775 -1.56269,13.98642 -0.16925,0.52249 -0.31977,0.5838 -1.06852,0.4353 -1.09463,-0.21709 -5.71867,-0.29951 -7.67487,-0.13679 -2.345136,0.19507 -3.62048,0.41023 -6.815377,1.14981 -3.353594,0.77632 -5.729261,0.99921 -8.285348,0.77738 z m -1.38348,-18.34475 c 0.883153,-0.26118 1.195123,-1.20829 0.595498,-1.80792 -0.531045,-0.53104 -1.675315,-0.78422 -3.1496,-0.69686 -2.202815,0.13053 -3.066944,0.6245 -2.899331,1.65737 0.102235,0.6301 0.301837,0.81834 1.031081,0.97242 0.73668,0.15564 3.762561,0.0701 4.422352,-0.12501 z"
       id="path4634"
       inkscape:connector-curvature="0"
       inkscape:export-xdpi="8.7364407"
       inkscape:export-ydpi="8.7364407" />
    <path
       style="opacity:1;fill:#ffffff;fill-opacity:1;stroke:none;stroke-width:0.27930722;stroke-miterlimit:4;stroke-dasharray:none;stroke-opacity:1"
       d="m 116.24182,138.17326 c -0.43635,-0.43636 -0.79772,-1.2799 -0.89202,-2.08225 -0.081,-0.68906 -0.12809,-0.77615 -0.50348,-0.9314 -0.66077,-0.27328 -3.34753,-0.46432 -9.36765,-0.66608 -3.08694,-0.10346 -5.83628,-0.25351 -6.10962,-0.33343 -0.27335,-0.0799 -0.67337,-0.29374 -0.88892,-0.47512 -0.64421,-0.54207 -0.73936,-1.26136 -0.63485,-4.79993 0.11026,-3.73229 0.37905,-6.4394 0.80682,-8.12574 0.38106,-1.50214 0.6712,-2.1021 1.61685,-3.34329 0.39087,-0.51305 1.02518,-1.51111 1.40956,-2.21791 1.6428,-3.02082 1.9181,-3.48951 2.56612,-4.36866 0.92027,-1.24858 2.64239,-2.92485 3.79822,-3.69715 0.52147,-0.34844 1.54057,-0.91973 2.26465,-1.26954 l 1.31654,-0.63601 2.00544,0.0123 c 3.78629,0.0232 5.96379,0.94277 8.89542,3.75662 2.10389,2.01934 2.84004,3.2416 4.20926,6.98869 0.38941,1.06574 0.95607,2.59326 1.2592,3.3945 0.34264,0.90571 0.58084,1.79038 0.62969,2.33861 0.13631,1.53074 0.48066,1.91351 1.9287,2.14389 0.48686,0.0775 1.44918,0.31444 2.13852,0.52663 2.15887,0.66455 5.34739,1.08094 8.29527,1.0833 1.80173,0.001 2.71915,-0.18342 2.99429,-0.60337 0.24601,-0.37546 0.17589,-0.53855 -0.75306,-1.75128 -0.34501,-0.45044 -0.67056,-0.99118 -0.72337,-1.20164 -0.0528,-0.21046 -0.36237,-0.80999 -0.68792,-1.33228 -0.67534,-1.08355 -1.85068,-3.63923 -2.3832,-5.18205 -0.51533,-1.49303 -0.65157,-3.03791 -0.57314,-6.49895 0.10313,-4.55124 0.50379,-5.9687 2.19326,-7.75963 2.05454,-2.177948 4.47569,-2.415105 6.22983,-0.61023 0.57946,0.59622 1.56093,2.36176 1.56093,2.80793 0,0.27055 -0.78446,0.64108 -2.69914,1.27491 -0.71279,0.23596 -1.45701,0.55568 -1.65384,0.7105 -0.33834,0.26615 -0.34462,0.29116 -0.11506,0.45902 0.3211,0.23479 0.99547,0.22489 2.9388,-0.0431 0.88615,-0.12221 1.7679,-0.18287 1.9594,-0.1348 0.76777,0.19269 1.65682,2.34232 1.48971,3.60197 -0.10123,0.76312 -0.34282,0.96536 -1.31852,1.10372 -1.59824,0.22663 -3.14042,0.94917 -3.14042,1.47132 0,0.26051 0.64325,0.56267 1.41613,0.66519 0.4608,0.0611 1.00711,0.004 1.83549,-0.19307 1.7122,-0.40665 1.92958,-0.38587 2.17776,0.20811 0.32845,0.78608 0.57571,2.32798 0.85421,5.32675 0.14345,1.54451 0.31649,3.07797 0.38457,3.40769 0.068,0.32972 0.21492,1.05051 0.32634,1.60175 0.29458,1.45744 1.17686,9.98309 1.20232,11.61827 0.0214,1.38175 0.0185,1.39613 -0.31237,1.49007 -0.50591,0.14365 -4.22206,0.13434 -6.48129,-0.0163 -3.88691,-0.25905 -19.2628,-1.68808 -19.45743,-1.80835 -0.0467,-0.0289 -0.12729,-0.4823 -0.17904,-1.00761 -0.14073,-1.42818 -0.53594,-2.809 -1.19491,-4.17508 -0.32459,-0.67287 -0.65934,-1.44384 -0.74385,-1.71326 -0.20616,-0.65707 -1.02719,-1.56433 -2.27584,-2.51483 l -1.02952,-0.78373 -5.53358,-0.0954 c -3.04347,-0.0525 -6.84609,-0.0502 -8.45028,0.005 -2.75514,0.0949 -2.93603,0.11708 -3.26557,0.40054 l -0.34888,0.30009 0.33941,0.3394 c 0.21505,0.21505 0.60362,0.39162 1.06061,0.48193 1.57951,0.31217 8.34048,0.69796 11.87971,0.67788 2.59948,-0.0148 2.99159,0.0457 3.95335,0.60931 1.04201,0.61066 2.21853,2.52366 3.12346,5.07866 0.5929,1.67399 0.58798,2.32265 -0.027,3.56092 -0.47474,0.95588 -1.15909,1.85129 -1.41489,1.85129 -0.14602,0 -0.49445,-0.72204 -1.01864,-2.11085 -0.40823,-1.08153 -0.80894,-1.47967 -1.25109,-1.24304 -0.33565,0.17964 -0.38801,0.42164 -0.5013,2.31746 -0.0516,0.86319 -0.16082,1.65621 -0.24273,1.76226 -0.0819,0.10604 -0.36518,0.23161 -0.6295,0.27904 -0.66445,0.11924 -0.86386,-0.12649 -1.05709,-1.30251 -0.44386,-2.70155 -1.38845,-2.81684 -1.95162,-0.23819 -0.40129,1.83742 -0.67254,2.18712 -1.2492,1.61046 z"
       id="path4636"
       inkscape:connector-curvature="0"
       inkscape:export-xdpi="8.7364407"
       inkscape:export-ydpi="8.7364407" />
    <path
       style="opacity:1;fill:#ffffff;fill-opacity:1;stroke:none;stroke-width:0.27930722;stroke-miterlimit:4;stroke-dasharray:none;stroke-opacity:1"
       d="m 70.450537,74.951723 c -0.39333,-0.146251 -0.837698,-0.914808 -0.933636,-1.614769 -0.105198,-0.767607 0.484691,-2.331362 1.41277,-3.745054 0.780732,-1.189248 0.999754,-1.308239 3.03403,-1.648394 1.276403,-0.21343 1.381548,-0.213271 1.836843,0.0028 0.481039,0.228258 1.678755,1.58279 1.68066,1.900656 0.0026,0.242958 -0.608833,0.202826 -1.589379,-0.104515 -0.79875,-0.250373 -0.906939,-0.254897 -1.634966,-0.06838 -1.717252,0.439937 -2.880836,1.375887 -3.178069,2.556325 -0.09123,0.362345 -0.116099,1.0078 -0.06324,1.641616 0.09398,1.126937 0.0074,1.292547 -0.565017,1.079737 z"
       id="path4638"
       inkscape:connector-curvature="0"
       inkscape:export-xdpi="8.7364407"
       inkscape:export-ydpi="8.7364407" />
    <path
       style="opacity:1;fill:#ffffff;fill-opacity:1;stroke:none;stroke-width:0.09875001;stroke-miterlimit:4;stroke-dasharray:none;stroke-opacity:1"
       d="m 140.70336,122.67827 c -0.18359,-0.032 -0.55803,-0.41676 -0.73427,-0.75456 -0.20624,-0.3953 -0.33565,-0.77136 -0.28342,-0.82359 0.10194,-0.10195 0.79052,0.459 1.13075,0.92117 0.15608,0.21199 0.20529,0.31908 0.19471,0.42351 -0.0161,0.15819 -0.15124,0.26073 -0.30777,0.23347 z"
       id="path4640"
       inkscape:connector-curvature="0"
       inkscape:export-xdpi="8.7364407"
       inkscape:export-ydpi="8.7364407" />
    <path
       style="opacity:1;fill:#ff0000;fill-opacity:1;stroke:none;stroke-width:0.55861443;stroke-miterlimit:4;stroke-dasharray:none;stroke-opacity:1"
       d="m 76.74037,163.99018 c 0,-2.11696 -0.624152,-10.85738 -0.929031,-13.00973 -0.208227,-1.46998 -0.462862,-4.92105 -0.565891,-7.66904 l -0.187325,-4.99634 0.640689,-0.14688 c 4.942205,-1.13302 7.395607,-1.49831 11.519558,-1.71514 5.70363,-0.2999 6.18149,-0.23715 7.07062,0.92857 0.87069,1.14155 1.44463,1.13806 3.14521,-0.0191 l 1.35591,-0.92262 6.72883,0.16147 6.72881,0.16146 1.88901,1.90173 1.88905,1.90172 3.24572,-0.21935 c 4.22791,-0.28573 5.69392,-0.77387 6.83215,-2.27489 0.47903,-0.63169 0.97341,-1.33163 1.09866,-1.55541 0.19968,-0.35679 0.73832,-0.37117 4.37613,-0.11679 2.28163,0.15954 4.84338,0.47109 5.69274,0.69233 0.8494,0.22123 3.18262,0.51543 5.18499,0.65377 2.00234,0.13833 4.35369,0.38645 5.2252,0.55137 0.87151,0.16492 2.86581,0.25971 4.43172,0.21066 2.67063,-0.0837 2.91079,-0.13778 3.87332,-0.87262 0.94466,-0.72123 1.27706,-0.80142 4.18695,-1.0101 4.26876,-0.30612 4.77467,-0.15665 5.35749,1.58284 0.54838,1.63674 1.15438,6.04899 1.53419,11.17038 0.15978,2.15442 0.51625,4.59359 0.83981,5.74629 0.30922,1.10158 0.67019,2.83844 0.80214,3.85969 0.13197,1.02125 0.36052,1.97741 0.50789,2.1248 0.1474,0.14738 0.268,0.74376 0.268,1.32529 v 1.05732 l -9.42126,-0.18208 c -8.96059,-0.17317 -11.5984,-0.0929 -20.78021,0.63205 -5.93423,0.46857 -20.57326,0.61628 -28.19694,0.28452 -3.96893,-0.17271 -12.02711,-0.37971 -17.90705,-0.45999 -9.04224,-0.12345 -11.092152,-0.0799 -13.293777,0.28261 -3.220931,0.53032 -3.143303,0.53177 -3.143303,-0.0588 z"
       id="path4642"
       inkscape:connector-curvature="0"
       inkscape:export-xdpi="8.7364407"
       inkscape:export-ydpi="8.7364407" />
    <path
       style="opacity:1;fill:#ff0000;fill-opacity:1;stroke:none;stroke-width:0.55861443;stroke-miterlimit:4;stroke-dasharray:none;stroke-opacity:1"
       d="m 45.160656,162.75507 c -0.235188,-0.5162 -0.06718,-2.32642 0.799994,-8.61945 1.24325,-9.02211 1.647348,-12.57272 1.647348,-14.47398 0,-1.7749 0.628253,-2.55672 2.036181,-2.53385 10.038397,0.16307 21.311368,0.61101 21.556954,0.85658 0.219684,0.2197 0.11049,1.37384 -0.413914,4.37545 -0.986816,5.64842 -0.979488,5.58016 -1.244918,11.5606 -0.181398,4.08676 -0.356843,5.69041 -0.745093,6.81071 -0.488447,1.4093 -0.553217,1.47397 -1.69455,1.69178 -1.358318,0.25921 -6.88475,0.35009 -12.545643,0.20631 -2.916396,-0.0741 -4.359249,0.0102 -5.830597,0.34041 -2.688351,0.60342 -3.207278,0.5722 -3.565762,-0.21456 z"
       id="path4644"
       inkscape:connector-curvature="0"
       inkscape:export-xdpi="8.7364407"
       inkscape:export-ydpi="8.7364407" />
    <path
       style="opacity:1;fill:#ff0000;fill-opacity:1;stroke:none;stroke-width:0.55861443;stroke-miterlimit:4;stroke-dasharray:none;stroke-opacity:1"
       d="m 41.728057,190.92428 c 0,-1.20896 0.35613,-5.03815 0.791396,-8.5093 0.435266,-3.47116 0.980281,-8.11526 1.211103,-10.32023 0.230849,-2.20498 0.543269,-4.63341 0.694293,-5.39652 l 0.274559,-1.38748 1.450842,-0.30119 c 2.12897,-0.44197 5.988658,-0.44765 11.929507,-0.0176 5.197317,0.37626 5.289233,0.37364 7.709165,-0.21984 1.347021,-0.33035 2.505261,-0.54453 2.573841,-0.47594 0.06858,0.0686 -0.01905,2.152 -0.194919,4.6298 -0.547846,7.72141 -0.0061,12.57706 1.766861,15.83445 0.420661,0.7729 1.071642,1.62201 1.446636,1.88691 1.56845,1.10796 3.533775,0.88991 4.050321,-0.44937 0.436933,-1.13283 1.266666,-8.66688 1.570249,-14.25777 0.149648,-2.75613 0.345705,-5.20296 0.435663,-5.4374 0.08996,-0.23445 0.481065,-0.51543 0.869077,-0.62441 1.190228,-0.33428 21.218629,-0.18148 25.695219,0.19602 2.32286,0.19588 9.48473,0.39032 16.30344,0.44262 11.05935,0.0848 12.93538,0.0326 20.71338,-0.57702 9.50651,-0.74505 10.50917,-0.77192 20.98067,-0.56226 l 7.34991,0.14715 0.48914,0.94506 c 0.26902,0.51977 0.77194,2.59934 1.11762,4.62125 0.34568,2.02191 0.99153,5.07425 1.43523,6.78299 0.44374,1.70873 0.99645,4.83579 1.22831,6.94901 0.23185,2.11321 0.49268,4.40161 0.57964,5.08533 0.13227,1.04001 0.0765,1.28592 -0.34139,1.50511 -0.27575,0.14463 -4.15115,0.32537 -8.65124,0.40347 -6.46842,0.11227 -8.92437,0.26034 -11.89349,0.71704 -3.40281,0.52342 -3.94756,0.54374 -6.01356,0.22429 -3.10613,-0.48026 -20.91192,-0.46425 -30.51476,0.0274 -6.8884,0.3527 -7.57619,0.34631 -10.0226,-0.0931 -2.19266,-0.39384 -5.15597,-0.50746 -17.9342,-0.68764 -10.529336,-0.14847 -15.73705,-0.31888 -16.683571,-0.54595 -1.761781,-0.42264 -9.464172,-0.15875 -12.108366,0.41485 -1.166495,0.25304 -4.587849,0.50269 -9.087168,0.66307 -3.968961,0.14147 -7.66728,0.33103 -8.21854,0.42124 l -1.002268,0.16404 z"
       id="path4646"
       inkscape:connector-curvature="0"
       inkscape:export-xdpi="8.7364407"
       inkscape:export-ydpi="8.7364407" />
    <path
       style="opacity:1;fill:#ff0000;fill-opacity:1;stroke:none;stroke-width:0.55861443;stroke-miterlimit:4;stroke-dasharray:none;stroke-opacity:1"
       d="m 40.756084,214.10219 -1.710425,-0.11263 0.177747,-3.32517 c 0.09776,-1.82884 0.356552,-4.25812 0.575098,-5.39841 0.218519,-1.14029 0.537078,-3.73814 0.707919,-5.773 0.207354,-2.47001 0.43561,-3.82476 0.6867,-4.07586 0.265139,-0.26512 1.100084,-0.38232 2.829269,-0.39713 1.349242,-0.0116 5.941033,-0.1394 10.203973,-0.28409 14.27496,-0.48452 17.961981,-0.53827 19.408961,-0.28296 0.837327,0.14773 2.107962,0.16025 3.041677,0.03 2.942881,-0.41066 15.908527,-0.57803 22.197907,-0.28655 4.48202,0.20771 6.8499,0.44162 8.68624,0.85804 2.18149,0.49469 3.01485,0.55 6.1327,0.40701 1.98446,-0.091 6.0737,-0.27562 9.08714,-0.41023 3.01347,-0.13461 11.9737,-0.25826 19.91159,-0.27477 7.9379,-0.0165 18.28123,-0.19095 22.98517,-0.38764 4.70395,-0.19669 8.65183,-0.26573 8.77306,-0.15343 0.65201,0.60395 2.09365,7.96312 2.71584,13.86361 0.56597,5.36739 0.61383,5.02583 -0.73128,5.21786 -2.26156,0.32288 -131.355015,1.07014 -135.679286,0.78539 z"
       id="path4650"
       inkscape:connector-curvature="0"
       inkscape:export-xdpi="8.7364407"
       inkscape:export-ydpi="8.7364407" />
  </g>
</svg>
