<?xml version="1.0" encoding="utf-8"?>
<!-- Generator: Adobe Illustrator 16.0.0, SVG Export Plug-In . SVG Version: 6.00 Build 0)  -->
<!DOCTYPE svg PUBLIC "-//W3C//DTD SVG 1.1//EN" "http://www.w3.org/Graphics/SVG/1.1/DTD/svg11.dtd" [
	<!ENTITY ns_flows "http://ns.adobe.com/Flows/1.0/">
	<!ENTITY ns_extend "http://ns.adobe.com/Extensibility/1.0/">
	<!ENTITY ns_ai "http://ns.adobe.com/AdobeIllustrator/10.0/">
	<!ENTITY ns_graphs "http://ns.adobe.com/Graphs/1.0/">
]>
<svg version="1.1" xmlns:x="&ns_extend;" xmlns:i="&ns_ai;" xmlns:graph="&ns_graphs;"
	 xmlns="http://www.w3.org/2000/svg" xmlns:xlink="http://www.w3.org/1999/xlink" xmlns:a="http://ns.adobe.com/AdobeSVGViewerExtensions/3.0/"
	 x="0px" y="0px" width="864px" height="864px" viewBox="0 0 864 864" enable-background="new 0 0 864 864" xml:space="preserve">
<g id="Layer_2">
	<path fill="#FFFFFF" stroke="#000000" stroke-miterlimit="10" d="M699.434,318.912c10.004,13.375,19.828,26.508,29.623,39.602
		c3.294-1.906,6.421-4.138,9.882-5.553c1.926-0.787,4.829-1.005,6.553-0.089c3.662,1.947,7.359,4.332,10.123,7.372
		c9.577,10.536,19.18,21.098,27.979,32.276c9.328,11.849,13.627,25.502,11.16,40.822c-0.379,2.349-0.378,4.806-0.172,7.179
		c0.093,1.058,0.883,2.457,1.777,2.979c8.186,4.775,16.789,8.91,24.617,14.198c6.791,4.589,12.267,10.691,12.819,19.717
		c0.427,6.967,1.771,13.956,1.428,20.872c-0.656,13.246-5.372,25.259-16.767,32.695c-5.128,3.347-12.173,4.791-18.447,5.102
		c-9.362,0.463-18.955-0.057-28.166-1.723c-4.609-0.834-9.502-4.349-12.668-8.026c-6.241-7.249-11.347-15.473-16.984-23.246
		c-0.604-0.832-1.762-2.012-2.427-1.875c-1.013,0.207-2.162,1.249-2.66,2.236c-3.951,7.849-7.15,16.146-11.759,23.574
		c-6.842,11.028-18.407,15.88-32.103,13.13c-11.541-2.318-23.121-4.622-34.791-6.071c-11.049-1.372-21.298,3.183-31.631,6.261
		c-9.507,2.832-18.785,6.12-28.999,5.681c-18.872-0.811-37.771-0.983-56.643-1.781c-19.537-0.825-39.056-2.104-58.584-3.134
		c-14.759-0.778-29.515-1.644-44.284-2.163c-14.614-0.514-28.636,1.989-41.678,9.064c-8.855,4.805-18.265,8.441-28.255,9.728
		c-9.032,1.162-17.311-1.697-24.312-7.591c-5.592-4.706-10.965-9.672-16.432-14.528c-2.757-2.449-5.814-3.543-9.653-3.402
		c-19.814,0.727-39.638,1.183-59.457,1.8c-14.635,0.456-29.262,1.155-43.898,1.487c-17.977,0.408-35.98,1.176-53.935,0.61
		c-15.289-0.481-30.748-1.977-44.827-8.737c-7.302-3.506-13.994-8.319-20.84-12.73c-10.208-6.578-11.696-7.013-23.739,1.876
		c-5.968,4.405-12.464,7.815-20.186,5.341c-6.472-2.073-11.41-6.474-15.023-12.137c-6.719-10.528-8.489-21.527-0.452-31.374
		c4.75-5.818,10.916-10.568,16.814-15.34c7.148-5.783,11.411-12.992,13.714-21.854c3.348-12.878,5.087-26.354,11.793-38.111
		c3.553-6.229,7.84-12.17,12.561-17.573c7.907-9.049,17.137-16.733,27.527-22.855c12.1-7.129,24.798-12.312,38.948-14.448
		c15.239-2.3,30.302-5.919,45.317-9.491c9.834-2.34,19.729-4.91,29.085-8.654c11.678-4.673,20.629-13.36,28.738-22.879
		c12.165-14.28,26.738-24.468,45.558-28.5c13.326-2.854,26.55-4.809,40.186-3.878c12.195,0.833,23.696,4.134,34.369,9.883
		c8.909,4.799,17.555,10.097,24.826,17.381c8.454,8.47,15.705,17.894,21.279,28.379c9.91,18.641,19.494,37.472,28.607,56.514
		c5.115,10.688,6.565,22.54,8.528,34.171c0.824,4.885,2.474,9.656,4.031,14.386c2.199,6.676,11.474,8.997,16.582,7.941
		c13.066-2.702,22.944-10.146,31.426-20.167c8.988-10.622,13.508-23.447,19.075-35.817c6.519-14.479,13.363-28.812,20.068-43.208
		c4.323-9.282,11.125-16.797,18.851-23.047c8.056-6.517,17.216-11.62,27.124-15.263c11.254-4.138,22.171-9.216,33.496-13.127
		c12.407-4.285,25.095-7.768,37.694-11.485c12.6-3.717,25.521-4.898,38.58-4.012c11.875,0.806,23.649,2.466,35.104,5.888
		c5.811,1.735,11.611,3.501,17.404,5.296c5.065,1.569,9.61,3.94,11.749,9.16c0.537,1.313,0.789,3.389,0.117,4.437
		c-2.534,3.95-5.742,7.405-10.598,8.475c-10.058,2.216-20.067,4.881-30.246,6.253c-9.991,1.347-20.167,1.323-30.262,1.896
		C702.227,318.787,700.78,318.847,699.434,318.912z"/>
</g>
<g id="Layer_1">
	<path fill-rule="evenodd" clip-rule="evenodd" d="M698.434,318.912c10.004,13.375,19.828,26.508,29.623,39.602
		c3.294-1.906,6.421-4.138,9.882-5.553c1.926-0.787,4.829-1.005,6.553-0.089c3.662,1.947,7.359,4.332,10.123,7.372
		c9.577,10.536,19.18,21.098,27.979,32.276c9.328,11.849,13.627,25.502,11.16,40.822c-0.379,2.349-0.378,4.806-0.172,7.179
		c0.093,1.058,0.883,2.457,1.777,2.979c8.186,4.775,16.789,8.91,24.617,14.198c6.791,4.589,12.267,10.691,12.819,19.717
		c0.427,6.967,1.771,13.956,1.428,20.872c-0.656,13.246-5.372,25.259-16.767,32.695c-5.128,3.347-12.173,4.791-18.447,5.102
		c-9.362,0.463-18.955-0.057-28.166-1.723c-4.609-0.834-9.502-4.349-12.668-8.026c-6.241-7.249-11.347-15.473-16.984-23.246
		c-0.604-0.832-1.762-2.012-2.427-1.875c-1.013,0.207-2.162,1.249-2.66,2.236c-3.951,7.849-7.15,16.146-11.759,23.574
		c-6.842,11.028-18.407,15.88-32.103,13.13c-11.541-2.318-23.121-4.622-34.791-6.071c-11.049-1.372-21.298,3.183-31.631,6.261
		c-9.507,2.832-18.785,6.12-28.999,5.681c-18.872-0.811-37.771-0.983-56.643-1.781c-19.537-0.825-39.056-2.104-58.584-3.134
		c-14.759-0.778-29.515-1.644-44.284-2.163c-14.614-0.514-28.636,1.989-41.678,9.064c-8.855,4.805-18.265,8.441-28.255,9.728
		c-9.032,1.162-17.311-1.697-24.312-7.591c-5.592-4.706-10.965-9.672-16.432-14.528c-2.757-2.449-5.814-3.543-9.653-3.402
		c-19.814,0.727-39.638,1.183-59.457,1.8c-14.635,0.456-29.262,1.155-43.898,1.487c-17.977,0.408-35.98,1.176-53.935,0.61
		c-15.289-0.481-30.748-1.977-44.827-8.737c-7.302-3.506-13.994-8.319-20.84-12.73c-10.208-6.578-11.696-7.013-23.739,1.876
		c-5.968,4.405-12.464,7.815-20.186,5.341c-6.472-2.073-11.41-6.474-15.023-12.137c-6.719-10.528-8.489-21.527-0.452-31.374
		c4.75-5.818,10.916-10.568,16.814-15.34c7.148-5.783,11.411-12.992,13.714-21.854c3.348-12.877,5.087-26.354,11.793-38.111
		c3.553-6.229,7.84-12.17,12.561-17.573c7.907-9.049,17.137-16.733,27.527-22.855c12.1-7.129,24.798-12.312,38.948-14.448
		c15.239-2.3,30.302-5.919,45.317-9.491c9.834-2.34,19.729-4.91,29.085-8.654c11.678-4.673,20.629-13.36,28.738-22.879
		c12.165-14.28,26.738-24.468,45.558-28.5c13.326-2.854,26.55-4.809,40.186-3.878c12.195,0.833,23.696,4.134,34.369,9.883
		c8.909,4.799,17.555,10.097,24.826,17.381c8.454,8.47,15.705,17.894,21.279,28.379c9.91,18.641,19.494,37.472,28.607,56.514
		c5.115,10.688,6.565,22.54,8.528,34.171c0.824,4.885,2.474,9.656,4.031,14.385c2.199,6.676,11.474,8.997,16.582,7.941
		c13.066-2.702,22.944-10.146,31.426-20.167c8.988-10.622,13.508-23.447,19.075-35.817c6.519-14.479,13.363-28.812,20.068-43.208
		c4.323-9.282,11.125-16.797,18.851-23.047c8.056-6.517,17.216-11.62,27.124-15.263c11.254-4.138,22.171-9.216,33.496-13.127
		c12.407-4.285,25.095-7.768,37.694-11.485c12.6-3.717,25.521-4.898,38.58-4.012c11.875,0.806,23.649,2.466,35.104,5.888
		c5.811,1.735,11.611,3.501,17.404,5.296c5.065,1.569,9.61,3.94,11.749,9.16c0.537,1.313,0.789,3.389,0.117,4.437
		c-2.534,3.95-5.742,7.405-10.598,8.475c-10.058,2.216-20.067,4.881-30.246,6.253c-9.991,1.347-20.167,1.323-30.262,1.896
		C701.227,318.787,699.78,318.847,698.434,318.912z M374.871,372.5c0.508,0.162,1.017,0.324,1.525,0.486
		c-0.929,4.066-2.059,8.099-2.748,12.206c-2.152,12.814-7.18,24.527-13.549,35.703c-7.764,13.623-13.25,28.178-17.181,43.251
		c-2.399,9.203-3.924,18.698-5.047,28.157c-1.747,14.698-0.258,28.894,9.414,41.075c4.215,5.309,8.803,10.468,15.417,12.526
		c7.944,2.472,15.955,0.828,23.248-2.582c15.861-7.418,27.317-20.08,37.297-33.937c6.085-8.449,11.202-17.66,16.111-26.871
		c6.362-11.938,10.074-24.71,10.297-38.414c0.235-14.43-0.999-28.698-4.318-42.729c-1.642-6.935-3.244-14.004-6.028-20.515
		c-4.73-11.061-10.336-21.751-15.658-32.556c-6.256-12.7-14.338-24.233-23.834-34.639c-8.392-9.196-18.712-16.197-29.729-21.885
		c-6.026-3.111-12.519-6.097-19.119-7.154c-12.859-2.061-25.881-2.071-38.726,1.301c-11.473,3.012-22.672,6.777-31.794,14.518
		c-8.53,7.237-16.499,15.164-24.427,23.076c-10.101,10.082-21.432,17.613-35.79,20.224c-8.815,1.603-17.487,3.993-26.227,6.016
		c-11.842,2.742-23.701,5.412-35.524,8.229c-5.613,1.337-11.417,2.347-16.677,4.581c-6.96,2.956-13.58,6.78-20.155,10.562
		c-13.634,7.842-24.294,18.936-32.117,32.375c-10.94,18.792-14.571,39.636-14.042,61.101c0.243,9.854,3.774,18.926,10.383,26.718
		c7.533,8.883,16.581,15.255,27.029,20.481c19.201,9.605,39.613,13.251,60.605,13.538c16.876,0.231,33.772-1.403,50.667-2.026
		c24.748-0.913,49.502-1.642,74.252-2.491c7.302-0.25,14.599-0.641,21.945-0.97c1.972-6.104,4.474-11.892,5.664-17.937
		c2.613-13.276,4.067-26.791,6.942-40.001c2.179-10.014,4.686-20.25,9.054-29.433c9.167-19.271,19.644-37.919,29.619-56.805
		C372.595,375.887,373.791,374.224,374.871,372.5z M736.648,419.043c-7.676-2.811-11.407-7.159-12.697-14.103
		c-2.075-11.169-4.073-22.416-7.24-33.299c-3.17-10.893-8.675-20.833-16.928-28.94c-5.786-5.683-11.494-11.459-17.515-16.885
		c-8.763-7.897-19.854-11.314-30.706-15.009c-6.762-2.303-13.747-4.597-20.981-2.379c-5.972,1.83-11.738,4.315-17.648,6.358
		c-9.414,3.255-18.835,6.501-28.337,9.488c-2.57,0.808-3.892,2.007-3.829,4.637c0.18,7.458,0.348,14.917,0.592,22.373
		c0.246,7.493-0.045,15.005-4.113,21.512c-8.749,13.994-17.734,27.845-26.869,41.592c-5.652,8.505-12.884,15.061-23.665,16.292
		c-5.013,0.572-8.931,2.56-12.072,6.927c-3.669,5.1-8.304,9.447-14.261,12.124c-9.773,4.394-19.64,7.812-30.621,5.143
		c-1.013-0.246-3.004,0.531-3.435,1.389c-2.592,5.161-5.226,10.356-7.138,15.789c-2.054,5.831-2.934,12.079-5.034,17.89
		c-3.127,8.652-6.793,17.114-10.396,25.588c-1.534,3.608-1.122,8.211,2.461,9.644c5.649,2.259,11.718,4.231,17.731,4.676
		c14.859,1.099,29.788,1.286,44.69,1.791c12.648,0.429,25.297,0.968,37.949,1.139c19.678,0.267,39.365,0.564,59.037,0.226
		c8.005-0.138,16.062-1.492,23.953-3.025c14.606-2.837,29.391-20.096,28.047-36.304c-0.317-3.823-1.116-7.605-1.48-11.427
		c-1.354-14.208-6.771-26.742-15.269-38.095c-6.742-9.007-14.715-15.362-26.876-14.28c-4.794,0.427-5.819,1.496-4.812,6.476
		c0.598,2.955,0.938,5.963,1.478,9.504c-4.112-2.041-7.676-3.678-11.105-5.558c-2.419-1.325-4.863-2.746-6.926-4.548
		c-2.988-2.611-5.156-1.852-7.781,0.606c-7.289,6.829-7.869,13.24-1.458,20.582c2.841,3.253,6.01,6.237,8.67,9.626
		c2.261,2.879,2.502,6.798,0.019,9.138c-1.277,1.204-5.039,0.184-7.531-0.43c-2.534-0.625-4.887-1.984-8.075-3.345
		c2.981,6.738,5.521,12.476,8.2,18.531c-3.547,0.922-6.932,2.384-10.391,2.59c-9.433,0.56-18.895,0.684-28.347,0.802
		c-10.527,0.131-21.065,0.334-31.582-0.011c-6.718-0.221-13.473-1.01-20.085-2.225c-5.856-1.076-8.676-6.561-7.287-12.369
		c25.184,0,50.326,0,76.273,0c0-4.572-0.39-9.244,0.087-13.825c0.805-7.73,1.37-15.627,3.477-23.044
		c2.769-9.744,8.871-17.214,19.413-19.714c7.05-1.672,14.141-3.174,21.233-4.65c2.914-0.607,4.416-1.375,3.98-5.167
		c-1.13-9.856-1.51-19.798-2.214-30.063c2.229,0,3.98,0.235,5.64-0.053c2.75-0.477,3.626,1.235,4.087,3.25
		c0.974,4.252,1.672,8.567,2.62,12.826c1.29,5.79,2.062,11.81,4.241,17.257c2.509,6.272,7.438,10.98,13.013,14.935
		c2.666,1.892,5.708,3.836,7.325,6.514c4.96,8.213,10.19,16.445,13.702,25.31c5.59,14.112,7.196,29.187,8.231,44.317
		c0.408,5.961-1.47,9.458-6.995,11.225c-0.155,0.05-0.197,0.452-0.631,1.535c4.722,2.469,9.379,5.38,14.391,7.422
		c8.962,3.65,18.519,2.826,27.915,2.615c1.835-0.041,3.783-0.981,5.441-1.925c11.482-6.533,15.658-17.598,18.231-29.66
		c1.841-8.629,3.811-17.23,5.718-25.827c3.523-0.026,6.646-0.97,8.592,2.851c4.914,9.645,9.939,19.238,15.187,28.706
		c5.848,10.551,14.129,18.892,26.384,20.53c8.828,1.181,18.135,0.74,26.956-0.673c5.833-0.934,10.547-5.465,11.877-11.58
		c-5.885,0-11.579,0.091-17.27-0.03c-4.062-0.088-5.629-3.007-3.735-6.52c1.861-3.453,4.993-4.506,8.595-4.561
		c4.745-0.072,9.492-0.018,14.987-0.018c0-6.539-0.157-12.521,0.035-18.492c0.308-9.535-0.313-10.033-9.382-6.924
		c-1.983,0.681-4.097,0.996-6.161,1.426c-3.611,0.751-7.488-0.995-8.641-4.362c-0.784-2.286-0.791-4.838-1.158-7.361
		c3.572-0.553,6.745-1.044,10.992-1.701c-8.805-4.533-16.679-8.491-24.421-12.694c-0.985-0.534-1.862-2.382-1.794-3.562
		c0.468-7.95,1.27-15.881,1.834-23.827c0.46-6.485-0.525-12.882-3.743-18.481c-7-12.182-15.372-23.409-25.994-32.709
		c-2.898-2.537-6.453-4.594-10.047-6c-5.09-1.992-8.57,0.552-8.59,5.762C736.612,387.621,736.648,402.945,736.648,419.043z
		 M751.328,296.327c-4.533-1.191-9.109-2.239-13.59-3.602c-11.54-3.508-23.137-6.535-35.363-5.976
		c-9.491,0.434-17.648,3.942-24.702,10.279c7.679,7.145,16.438,10.465,26.142,9.784c5.81-0.408,11.594-1.304,17.405-1.502
		C731.827,304.947,741.325,300.829,751.328,296.327z M45.514,502.221c6.583-6.019,12.597-11.448,18.487-17.008
		c0.584-0.552,0.73-1.965,0.542-2.866c-0.748-3.58-1.708-7.116-2.67-10.991c-8.064,2.778-14.783,7.347-20.271,13.726
		c-0.521,0.605-0.822,1.816-0.606,2.569C42.333,492.311,43.847,496.921,45.514,502.221z"/>
	<path fill-rule="evenodd" clip-rule="evenodd" d="M423.545,371.706c6.012,5.414,8.87,12.596,11.426,19.72
		c5.271,14.688,7.702,29.963,8.193,45.576c0.539,17.114-4.526,32.573-12.986,47.219c-7.998,13.847-17.374,26.622-28.408,38.182
		c-6.855,7.182-15.449,11.493-24.66,14.76c-5.378,1.908-10.914,3.32-16.055-0.146c-6.777-4.569-11.187-11.152-13.778-18.823
		c-3.686-10.91-1.252-21.876,0.436-32.724c3.492-22.449,12.304-43.108,21.773-63.561c6.322-13.654,12.082-27.568,18.102-41.361
		c0.898-2.057,1.646-4.22,2.854-6.082c0.628-0.969,2.064-1.867,3.206-1.965c3.042-0.262,6.124-0.067,9.189-0.066
		c0.798,0,1.915,0.285,2.345-0.126c3.877-3.7,6.587-1.176,9.578,1.386c0.809,0.692,2.623,0.686,3.799,0.361
		C420.292,373.579,421.866,372.529,423.545,371.706z"/>
	<path fill-rule="evenodd" clip-rule="evenodd" d="M234.479,371.502c2.219-0.718,4.398-1.68,6.669-2.018
		c0.801-0.119,2.303,1.097,2.68,2.029c3.397,8.381,10.87,12.868,17.498,18.816c-0.355,1.398-0.797,3.134-1.308,5.14
		C248.334,390.68,239.001,383.897,234.479,371.502z"/>
</g>
</svg>
